<svg width="460" height="268" viewBox="0 0 460 268" fill="none" xmlns="http://www.w3.org/2000/svg">
<g clip-path="url(#clip0_251_4882)">
<path d="M421.7 173.1C424.7 173.1 427.5 173.7 430.1 174.8C432.7 175.9 434.6 177.9 435.5 180.7L435.8 181.7C434.5 184.6 433.3 188 432 192C430.7 196 429.6 200.3 428.5 204.7C427.4 209 426.6 213.3 426 217.6C425.4 221.7 425 225.4 425 228.6C425 232.1 425.4 234.5 426.1 235.9C426.8 237.2 427.7 237.8 428.8 237.8C430.6 237.8 432.2 236.5 433.7 234L435 234.6C435 238.2 433.8 241.5 431.5 244.5C429.2 247.5 426.3 249.9 422.8 251.7C419.3 253.4 415.8 254.2 412.3 254.2C408.6 254.2 405.4 253 402.6 250.5C399.8 248.1 398.5 244.1 398.5 238.6C398.5 238.1 398.5 237.5 398.5 237C398.5 236.5 398.6 235.9 398.7 235.4C395.5 241.8 391.9 246.5 387.9 249.6C384 252.6 380 254.1 376 254.1C372.3 254.1 368.8 252.8 365.5 250.3C362.2 247.6 359.6 243.8 357.5 238.7C355.5 233.6 354.5 227.5 354.5 220.3C354.5 212.9 355.5 206.3 357.5 200.4C359.6 194.6 362.4 189.6 365.8 185.6C369.2 181.6 372.9 178.6 376.9 176.5C380.9 174.4 384.9 173.3 388.7 173.3C392.9 173.3 396.8 174.6 400.2 177.3C403.6 179.8 405.9 183.9 407.2 189.5C407.5 187.7 407.7 186.1 407.8 184.6C408 183.1 408.1 182.1 408.1 181.6C408.2 178.7 409.6 176.6 412.4 175.2C415.2 173.8 418.3 173.1 421.7 173.1ZM386.4 234C389.2 234 392.2 231.6 395.5 226.7C398.9 221.7 401.8 214.6 404.2 205.4C404.4 204.4 404.6 203.5 404.8 202.7C405 201.7 405.2 200.8 405.3 200C403.6 196.1 401.8 193.3 399.9 191.7C398.1 190 396.3 189.2 394.5 189.2C391.9 189.2 389.4 190.6 387 193.5C384.8 196.3 382.9 199.8 381.4 204C380 208.2 379.3 212.5 379.3 216.7C379.3 222.5 379.9 226.9 381.2 229.7C382.7 232.6 384.4 234 386.4 234ZM421.7 160.1C416.4 160.1 411.3 161.2 406.7 163.5H406.6H406.5C405.8 163.8 405.2 164.2 404.6 164.6C399.8 161.7 394.4 160.3 388.6 160.3C382.7 160.3 376.8 161.9 370.9 164.9C365.3 167.7 360.3 171.8 355.8 177.2C351.4 182.4 347.9 188.7 345.3 195.9V196V196.1C342.8 203.3 341.6 211.4 341.6 220.2C341.6 229 342.9 236.8 345.5 243.4C348.3 250.6 352.3 256.3 357.4 260.3L357.5 260.4L357.6 260.5C363.2 264.8 369.4 267 376.1 267C382.6 267 388.9 264.9 394.8 260.7C399.8 264.9 405.9 267.1 412.6 267.1C418.1 267.1 423.5 265.8 428.8 263.3L428.9 263.2L429 263.1C434.2 260.4 438.5 256.9 442 252.4C446.1 247.2 448.3 241 448.3 234.5V226.5L441.1 222.9L439.8 222.3L438.7 221.8C438.8 221.1 438.9 220.3 439 219.6C439.6 215.7 440.4 211.8 441.3 207.8C442.3 203.7 443.4 199.7 444.5 196C445.6 192.5 446.7 189.4 447.8 187L449.8 182.4L448.2 177.6L447.9 176.6V176.5V176.4C445.7 170.2 441.4 165.5 435.4 162.9C431 161.1 426.4 160.1 421.7 160.1Z" fill="white"/>
<path d="M332.8 146.7C335.9 146.7 338.7 147.3 341.4 148.5C344.2 149.7 346 151.6 347 154.4C346.4 155 345.5 157.4 344.3 161.6C343.1 165.6 341.9 170.6 340.6 176.4C342.6 176.5 344.7 176.6 346.8 176.7C348.9 176.8 351.1 177 353.3 177.2C353.5 177.8 353.7 178.5 353.8 179.3C353.9 180 354 180.8 354 181.7C354 183.3 353.7 185 353.2 186.9C352.8 188.7 352.2 190.3 351.6 191.8C349.1 191.6 346.7 191.4 344.4 191.2C342.2 190.9 340 190.7 337.9 190.6C337.1 195.2 336.3 199.7 335.5 204.3C334.9 208.9 334.3 213 333.9 216.7C333.6 220.4 333.4 223.3 333.4 225.4C333.4 229.9 334.2 232.8 335.8 234.3C337.5 235.8 339.5 236.5 341.8 236.5C343.9 236.5 345.8 236.1 347.5 235.2C349.2 234.4 350.4 233.3 351.2 232.2L352.8 232.7C352.2 237 350.5 240.9 347.7 244.1C344.9 247.3 341.7 249.8 337.8 251.6C334 253.3 330.2 254.1 326.3 254.1C322.9 254.1 319.7 253.4 316.6 251.9C313.6 250.3 311.2 247.9 309.3 244.6C307.5 241.3 306.6 237.1 306.6 232C306.6 229.2 306.9 225.6 307.4 221.2C307.9 216.7 308.6 211.9 309.5 206.6C310.5 201.3 311.4 196 312.4 190.7C310.3 190.8 308.2 191 306.2 191.3C304.3 191.6 302.4 192 300.5 192.4L300.2 191.3C302.3 188.8 304.5 186.6 306.9 184.8C309.2 183 311.7 181.5 314.2 180.3C315.6 173.3 316.7 167.3 317.7 162.2C318.7 157 319.1 153.9 319.1 153C319.1 151.2 320.5 149.7 323.2 148.5C326.2 147.3 329.3 146.7 332.8 146.7ZM332.8 133.7C327.6 133.7 322.8 134.6 318.4 136.4H318.3H318.2C307.8 140.8 306.2 148.7 306.1 152.4C306 152.9 305.8 154.6 304.9 159.7C304.2 163.2 303.5 167.2 302.6 171.8C301.3 172.6 300.1 173.5 298.9 174.4C295.8 176.8 292.9 179.6 290.2 182.9L285.8 188.2L287.7 194.8L288 195.9L291.4 207.7L296.4 206.6C295.7 211.2 295.1 215.6 294.6 219.6C294 224.6 293.7 228.6 293.7 231.9C293.7 239.2 295.1 245.5 298 250.7L298.1 250.8L298.2 250.9C301.3 256.3 305.5 260.4 310.6 263.1L310.8 263.2L311 263.3C315.8 265.6 321 266.8 326.4 266.8C332 266.8 337.7 265.6 343.1 263.1L343.2 263L343.3 262.9C348.7 260.3 353.5 256.7 357.4 252.2L357.5 252.1L357.6 252C361.9 246.9 364.6 240.8 365.6 234.1L367.2 223L356.4 219.8L354.8 219.3L346.7 216.9C347.1 213.5 347.6 209.8 348.1 205.7C348.2 205.2 348.3 204.7 348.4 204.1C349 204.2 349.6 204.2 350.3 204.3L359.6 205.1L363.3 196.5C364.2 194.4 364.9 192.1 365.5 189.7C366.3 186.8 366.7 183.9 366.7 181.2C366.7 179.7 366.6 178.3 366.4 177C366.2 175.5 365.8 174 365.4 172.7L362.7 164.7L356.7 164.1C357 163 357.3 162.3 357.4 161.7L361.6 157.5L358.9 149.8C356.7 143.6 352.3 138.9 346.2 136.2C342.3 134.7 337.7 133.7 332.8 133.7Z" fill="white"/>
<path d="M282.8 173.3C287.8 173.3 291.2 174.9 293 178.1C294.8 181.3 295.7 185.3 295.7 190C295.7 194.5 295.2 199.2 294.3 204.3C293.3 209.4 292.4 214.3 291.4 219.1C290.4 223.8 290 227.7 290 230.9C290 235.1 291.2 237.3 293.7 237.3C295 237.3 296.1 236.9 297 236.2C298 235.4 298.6 234.6 298.9 233.8L300 234.3C300 238.2 298.9 241.7 296.7 244.6C294.6 247.6 291.9 249.9 288.6 251.6C285.3 253.2 282 254 278.6 254C274.5 254 270.8 252.6 267.6 249.7C264.4 246.8 262.8 242.2 262.8 235.7C262.8 231.9 263.3 227.7 264.2 223.3C265.3 218.8 266.3 214.6 267.2 210.4C268.2 206.3 268.6 202.9 268.6 200.2C268.6 198.6 268.3 197.4 267.6 196.5C267.1 195.5 266.1 195.1 264.6 195.1C262.2 195.1 259.5 196.2 256.5 198.4C253.6 200.6 251.1 203.6 249 207.3C247 211 246 215.1 246 219.5C246 222.4 246.3 225.1 247 227.8C247.7 230.5 248.1 233.3 248.1 236.4C248.1 242.1 246.6 246.5 243.6 249.4C240.6 252.4 237.2 253.9 233.3 253.9C229.4 253.9 225.8 252.4 222.6 249.3C219.4 246.1 217.8 241.7 217.8 236.1C217.8 233.3 218.2 230.2 218.9 226.7C219.6 223.2 220.4 219.7 221.3 216C222.3 212.4 223.1 209 223.8 205.8C224.5 202.6 224.9 200 224.9 198C224.9 195.9 224.5 194.2 223.6 193.1C222.8 191.8 221.6 191.2 220.3 191.2C218.5 191.2 216.5 192.3 214.4 194.4L213.4 193.8C213.3 192.1 213.7 190.1 214.5 187.8C215.3 185.5 216.6 183.2 218.3 181.1C220.1 178.9 222.4 177 225.1 175.5C227.9 174 231.1 173.3 235 173.3C240.6 173.3 244.8 174.9 247.4 178.2C250.2 181.4 251.5 185.3 251.5 190C251.5 191.7 251.3 193.3 251 194.9C253.2 191.6 256 188.3 259.3 185C262.6 181.6 266.2 178.8 270.1 176.6C274.4 174.4 278.5 173.3 282.8 173.3ZM282.8 160.3C276.4 160.3 270.1 162 264.1 165.3H264H263.9C261.6 166.6 259.5 168 257.4 169.6C253.7 165.2 247 160.2 235.2 160.2C229.2 160.2 223.8 161.5 219.2 164C214.9 166.3 211.3 169.3 208.4 172.8C205.8 176 203.8 179.5 202.5 183.2C201 187.3 200.4 191 200.6 194.5L201 200.9L206.4 204.5L207.4 205.1L210.3 207C209.9 208.8 209.4 210.6 208.9 212.5V212.7V212.9C208 216.6 207.2 220.3 206.5 223.8C205.6 228.2 205.1 232.2 205.1 235.9C205.1 247.3 209.8 254.4 213.7 258.3L213.8 258.4L213.9 258.5C219.5 263.9 226.3 266.8 233.6 266.8C241 266.8 247.7 263.9 253.1 258.5C254.1 257.5 254.9 256.5 255.7 255.5C256.7 256.8 257.8 258.1 259 259.2C264.5 264.2 271.3 266.8 278.7 266.8C284.1 266.8 289.3 265.6 294.4 263.1L294.6 263L294.8 262.9C299.9 260.3 304.1 256.6 307.4 252C311.3 246.8 313.2 240.7 313.2 234V225.4L305.3 222L304.3 221.6V221.5C305.3 216.7 306.2 211.6 307.2 206.6C308.3 200.7 308.9 195.1 308.9 189.9C308.9 182.9 307.4 176.7 304.5 171.6C301.9 167.4 295.9 160.3 282.8 160.3Z" fill="white"/>
<path d="M197 173.1C200 173.1 202.8 173.7 205.4 174.8C208.1 176 209.9 177.9 210.8 180.7L211.1 181.7C209.8 184.6 208.6 188 207.3 192C206 196 204.9 200.3 203.8 204.7C202.7 209 201.9 213.3 201.3 217.6C200.7 221.7 200.3 225.4 200.3 228.6C200.3 232.1 200.7 234.5 201.4 235.9C202.1 237.2 203 237.8 204.1 237.8C205.9 237.8 207.5 236.5 209 234L210.3 234.6C210.3 238.2 209.1 241.5 206.8 244.5C204.5 247.5 201.6 249.9 198.1 251.7C194.6 253.4 191.1 254.2 187.6 254.2C183.9 254.2 180.7 253 177.9 250.5C175.1 248.1 173.8 244.1 173.8 238.6C173.8 238.1 173.8 237.5 173.8 237C173.8 236.5 173.9 235.9 174 235.4C170.8 241.8 167.2 246.5 163.2 249.6C159.3 252.6 155.3 254.1 151.3 254.1C147.6 254.1 144.1 252.8 140.8 250.3C137.5 247.6 134.9 243.8 132.8 238.7C130.8 233.6 129.8 227.5 129.8 220.3C129.8 212.9 130.8 206.3 132.8 200.4C134.9 194.6 137.7 189.6 141.1 185.6C144.5 181.6 148.2 178.6 152.2 176.5C156.2 174.4 160.2 173.3 164 173.3C168.2 173.3 172.1 174.6 175.4 177.3C178.8 179.8 181.1 183.9 182.4 189.5C182.7 187.7 182.9 186.1 183 184.6C183.2 183.1 183.3 182.1 183.3 181.6C183.4 178.7 184.8 176.6 187.6 175.2C190.5 173.8 193.6 173.1 197 173.1ZM161.7 234C164.5 234 167.5 231.6 170.8 226.7C174.2 221.7 177.1 214.6 179.5 205.4C179.7 204.4 179.9 203.5 180.1 202.7C180.3 201.7 180.5 200.8 180.6 200C178.9 196.1 177.1 193.3 175.2 191.7C173.4 190 171.6 189.2 169.8 189.2C167.1 189.2 164.7 190.6 162.3 193.5C160.1 196.3 158.2 199.8 156.7 204C155.3 208.2 154.6 212.5 154.6 216.7C154.6 222.5 155.2 226.9 156.5 229.7C158 232.6 159.7 234 161.7 234ZM197 160.1C191.7 160.1 186.6 161.2 182 163.5H181.9H181.8C181.1 163.8 180.5 164.2 179.9 164.6C175.1 161.7 169.7 160.3 163.9 160.3C158 160.3 152.1 161.9 146.2 164.9C140.6 167.7 135.6 171.8 131.1 177.2C126.7 182.4 123.2 188.7 120.6 195.9V196V196.1C118.1 203.3 116.9 211.4 116.9 220.2C116.9 229 118.2 236.8 120.8 243.4C123.6 250.6 127.6 256.3 132.7 260.3L132.8 260.4L132.9 260.5C138.5 264.8 144.7 267 151.4 267C157.9 267 164.2 264.9 170.1 260.7C175.1 264.9 181.2 267.1 187.9 267.1C193.4 267.1 198.8 265.8 204.1 263.3L204.2 263.2L204.3 263.1C209.5 260.4 213.8 256.9 217.3 252.4C221.4 247.2 223.6 241 223.6 234.5V226.5L216.4 222.9L215.1 222.3L214 221.8C214.1 221.1 214.2 220.3 214.3 219.6C214.9 215.7 215.7 211.8 216.6 207.8C217.6 203.7 218.7 199.7 219.8 196C220.9 192.5 222 189.4 223.1 187L225.1 182.4L223.5 177.6L223.2 176.6V176.5V176.4C221 170.2 216.7 165.5 210.7 162.9C206.4 161.1 201.8 160.1 197 160.1Z" fill="white"/>
<path d="M76.0999 254.4C68.9999 254.4 63.0999 253.2 58.3999 250.7C53.7999 248.3 50.3999 245.1 48.1999 241.3C45.9999 237.5 44.8999 233.6 44.8999 229.5C44.8999 225.6 45.8999 221.9 47.7999 218.4C49.6999 214.8 52.3999 211.8 55.8999 209.5C59.4999 207.2 63.6999 206 68.5999 206C68.4999 207 68.3999 207.9 68.3999 208.7C68.3999 209.4 68.3999 209.8 68.3999 209.8C68.3999 216.9 69.0999 222.5 70.4999 226.7C71.8999 230.7 73.5999 233.6 75.6999 235.4C77.7999 237.1 79.9999 237.9 82.1999 237.9C85.5999 237.9 88.5999 236.6 91.2999 233.9C93.9999 231.1 95.2999 228 95.2999 224.4C95.2999 220.4 93.5999 216.8 90.0999 213.7C86.6999 210.6 82.3999 207.2 77.0999 203.5C74.0999 201.3 70.9999 198.8 67.5999 196C64.2999 193.1 61.4999 189.8 59.1999 186C56.8999 182.1 55.6999 177.5 55.6999 172.2C55.6999 166.7 56.9999 161.8 59.4999 157.6C62.1999 153.4 65.5999 149.8 69.7999 146.9C74.0999 143.9 78.8999 141.7 83.9999 140.2C89.1999 138.6 94.2999 137.8 99.3999 137.8C105.7 137.8 110.8 138.8 114.8 140.8C118.8 142.8 121.8 145.4 123.9 148.6C125.9 151.8 126.9 155.1 126.9 158.5C126.9 161.7 126 164.8 124.2 167.7C122.5 170.6 120 172.9 116.6 174.7C113.2 176.5 109 177.4 104 177.4C104.3 175.9 104.5 174.6 104.6 173.4C104.7 172.1 104.8 171 104.8 170.1C104.8 164.8 103.6 161 101.3 158.8C99.0999 156.5 96.5999 155.3 93.7999 155.3C91.0999 155.3 88.5999 156.3 86.1999 158.3C83.7999 160.2 82.4999 163.3 82.4999 167.7C82.4999 171.4 83.4999 174.6 85.3999 177.2C87.3999 179.8 89.9999 182.2 92.9999 184.2C96.1999 186.2 99.4999 188.2 103 190.1C106.6 192 110 194.1 113.3 196.5C116.7 198.7 119.5 201.4 121.7 204.5C123.9 207.6 125 211.4 125 216.1C125 221 123.7 225.7 121 230.4C118.3 235 114.7 239 110.2 242.6C105.6 246.1 100.4 248.9 94.4999 251C88.6999 253.3 82.5999 254.4 76.0999 254.4Z" fill="#FD4801"/>
<path d="M99.3 138C105.6 138 110.7 139 114.7 141C118.7 143 121.7 145.6 123.8 148.8C125.8 152 126.8 155.3 126.8 158.7C126.8 161.9 125.9 165 124.1 167.9C122.4 170.8 119.9 173.1 116.5 174.9C113.1 176.7 108.9 177.6 103.9 177.6C104.2 176.1 104.4 174.8 104.5 173.6C104.6 172.3 104.7 171.2 104.7 170.3C104.7 165 103.5 161.2 101.2 159C99 156.7 96.4999 155.5 93.6999 155.5C90.9999 155.5 88.5 156.5 86.0999 158.5C83.6999 160.4 82.4 163.5 82.4 167.9C82.4 171.6 83.4 174.8 85.3 177.4C87.3 180 89.9 182.4 92.9 184.4C96.1 186.4 99.3999 188.4 102.9 190.3C106.5 192.2 109.9 194.3 113.2 196.7C116.6 198.9 119.4 201.6 121.6 204.7C123.8 207.8 124.9 211.6 124.9 216.3C124.9 221.2 123.6 225.9 120.9 230.6C118.2 235.2 114.6 239.2 110.1 242.8C105.5 246.3 100.3 249.1 94.4 251.2C88.6 253.3 82.4 254.4 76 254.4C68.9 254.4 63 253.2 58.2999 250.7C53.6999 248.3 50.2999 245.1 48.0999 241.3C45.8999 237.5 44.7999 233.6 44.7999 229.5C44.7999 225.6 45.8 221.9 47.7 218.4C49.6 214.8 52.2999 211.8 55.7999 209.5C59.4 207.2 63.6 206 68.5 206C68.4 207 68.3 207.9 68.3 208.7C68.3 209.4 68.3 209.8 68.3 209.8C68.3 216.9 69 222.5 70.4 226.7C71.8 230.7 73.5 233.6 75.5999 235.4C77.6999 237.1 79.8999 237.9 82.0999 237.9C85.5 237.9 88.4999 236.6 91.1999 233.9C93.8999 231.1 95.1999 228 95.1999 224.4C95.1999 220.4 93.5 216.8 90 213.7C86.5999 210.6 82.2999 207.2 77 203.5C74 201.3 70.9 198.8 67.5 196C64.2 193.1 61.3999 189.8 59.0999 186C56.7999 182.1 55.5999 177.5 55.5999 172.2C55.5999 166.7 56.9 161.8 59.4 157.6C62.1 153.4 65.4999 149.8 69.6999 146.9C73.9999 143.9 78.8 141.7 83.9 140.2C89.1 138.8 94.3 138 99.3 138ZM99.3 125C93 125 86.5 126 80.0999 127.9C73.7999 129.8 67.8 132.6 62.4 136.3C56.7 140.2 51.9 145.1 48.2999 150.8L48.2 150.9L48.0999 151C44.2999 157.3 42.4 164.4 42.4 172.3C42.4 179.9 44.2 186.8 47.7 192.8V192.9V193C48.6 194.5 49.6 196 50.7 197.4C50 197.8 49.2999 198.2 48.5999 198.7H48.5H48.4C43.1 202.2 38.9999 206.8 36.0999 212.3C33.1999 217.7 31.7 223.5 31.7 229.6C31.7 235.9 33.3999 242.1 36.7999 247.9C40.1999 253.8 45.3999 258.6 52.0999 262.2H52.2H52.2999C58.7999 265.6 66.7999 267.3 76 267.3C83.9 267.3 91.5999 266 98.8999 263.3C106.1 260.7 112.5 257.3 118.1 253L118.2 252.9L118.3 252.8C124.1 248.2 128.8 242.8 132.3 236.9V236.8V236.7C136.1 230.1 138 223.1 138 216C138 208.6 136 202.1 132.2 196.8C129.4 192.9 125.9 189.5 121.8 186.6C122.1 186.5 122.3 186.3 122.6 186.2C128.1 183.3 132.4 179.3 135.3 174.4C138.3 169.4 139.9 164 139.9 158.5C139.9 152.6 138.2 147 134.9 141.7C131.6 136.5 126.8 132.3 120.7 129.2C114.8 126.5 107.6 125 99.3 125Z" fill="white"/>
<path d="M425.2 21.7002C428.3 21.7002 431.1 22.3002 433.8 23.4002C436.6 24.6002 438.4 26.5002 439.4 29.3002C438.8 29.9002 437.9 32.3002 436.7 36.5002C435.5 40.5002 434.3 45.5002 433 51.3002C435 51.4002 437.1 51.5002 439.2 51.6002C441.3 51.7002 443.5 51.9002 445.7 52.1002C445.9 52.7002 446.1 53.4002 446.2 54.2002C446.3 54.9002 446.4 55.7002 446.4 56.6002C446.4 58.2002 446.1 59.9002 445.6 61.8002C445.2 63.6002 444.6 65.2002 444 66.7002C441.5 66.5002 439.1 66.3002 436.8 66.1002C434.6 65.8002 432.4 65.6002 430.3 65.5002C429.5 70.1002 428.7 74.6002 427.9 79.2002C427.3 83.8002 426.7 87.9002 426.3 91.6002C426 95.3002 425.8 98.2002 425.8 100.3C425.8 104.8 426.6 107.7 428.2 109.2C429.9 110.7 431.9 111.4 434.2 111.4C436.3 111.4 438.2 111 439.9 110.1C441.6 109.3 442.8 108.2 443.6 107.1L445.2 107.6C444.6 111.9 442.9 115.8 440.1 119C437.3 122.2 434.1 124.7 430.2 126.5C426.4 128.2 422.6 129 418.8 129C415.4 129 412.2 128.3 409.1 126.8C406.1 125.2 403.7 122.8 401.8 119.5C400 116.2 399.1 112 399.1 106.9C399.1 104.1 399.4 100.5 399.9 96.1002C400.4 91.6002 401.1 86.8002 402 81.5002C403 76.2002 403.9 70.9002 404.9 65.6002C402.8 65.7002 400.7 65.9002 398.7 66.2002C396.8 66.5002 394.9 66.9002 393 67.3002L392.7 66.2002C394.8 63.7002 397 61.5002 399.4 59.7002C401.7 57.9002 404.2 56.4002 406.7 55.2002C408.1 48.2002 409.2 42.2002 410.2 37.1002C411.2 31.9002 411.6 28.8002 411.6 27.9002C411.6 26.1002 413 24.6002 415.7 23.4002C418.5 22.3002 421.7 21.7002 425.2 21.7002ZM425.2 8.7002C420 8.7002 415.2 9.6002 410.8 11.4002H410.7H410.6C400.2 15.8002 398.7 23.7002 398.5 27.4002C398.4 27.9002 398.2 29.6002 397.3 34.7002C396.6 38.2002 395.9 42.2002 395 46.8002C393.7 47.6002 392.5 48.5002 391.3 49.4002C388.2 51.8002 385.3 54.6002 382.6 57.9002L378.2 63.2002L380.1 69.8002L380.4 70.9002L383.8 82.7002L388.8 81.6002C388.1 86.2002 387.5 90.6002 387 94.6002C386.4 99.6002 386.1 103.6 386.1 107C386.1 114.3 387.5 120.6 390.4 125.8L390.5 125.9L390.6 126C393.7 131.4 397.9 135.5 403 138.2L403.2 138.3L403.4 138.4C408.2 140.7 413.4 141.9 418.8 141.9C424.4 141.9 430.1 140.7 435.5 138.2L435.6 138.1L435.7 138C441.1 135.4 445.9 131.8 449.8 127.3L449.9 127.2L450 127.1C454.3 122 457 115.9 458 109.2L459.6 98.1002L449 95.2002L447.4 94.7002L439.3 92.3002C439.7 88.9002 440.2 85.2002 440.7 81.1002C440.8 80.6002 440.9 80.1002 441 79.6002C441.6 79.7002 442.2 79.7002 442.9 79.8002L452.2 80.6002L455.9 72.0002C456.8 69.9002 457.6 67.6002 458.1 65.2002C458.9 62.3002 459.3 59.4002 459.3 56.7002C459.3 55.2002 459.2 53.8002 459 52.5002C458.8 51.0002 458.4 49.5002 458 48.2002L455.3 40.2002L449.3 39.6002C449.6 38.5002 449.9 37.8002 450 37.2002L454.2 33.0002L451.5 25.3002C449.3 19.0002 444.9 14.4002 438.8 11.7002C434.7 9.7002 430 8.7002 425.2 8.7002Z" fill="white"/>
<path d="M365.4 47.7998C374.7 47.7998 381.5 49.8998 385.8 54.1998C390.1 58.2998 392.3 63.3998 392.3 69.2998C392.3 74.3998 390.9 79.0998 388.2 83.4998C385.6 87.6998 382 91.1998 377.5 93.7998C373 96.2998 368.2 97.5998 362.9 97.5998C360.1 97.5998 357.3 97.1998 354.5 96.2998C351.6 95.4998 348.8 94.0998 346.1 92.2998C346.6 98.8998 348.5 103.6 351.8 106.6C355.1 109.6 359 111.1 363.6 111.1C366.8 111.1 370 110.5 373.1 109.4C376.3 108.1 379.2 106.5 381.8 104.6C384.6 102.6 386.7 100.5 388.2 98.1998L389.3 98.9998C389.3 104.5 388.1 109.2 385.8 113.2C383.6 117 380.6 120.1 376.9 122.6C373.2 125 369.1 126.8 364.7 128C360.4 129.1 356 129.6 351.7 129.6C344 129.6 337.5 128.1 332.5 125C327.4 121.8 323.6 117.7 321.1 112.6C318.6 107.4 317.3 101.8 317.3 95.8998C317.3 90.2998 318.4 84.6998 320.5 78.9998C322.7 73.2998 325.9 68.0998 330 63.3998C334.2 58.6998 339.3 54.9998 345.3 52.0998C351 49.2998 357.8 47.7998 365.4 47.7998ZM355.2 86.5998C358.6 86.5998 361.3 85.5998 363.5 83.6998C365.6 81.6998 367.2 79.3998 368.3 76.6998C369.4 73.9998 369.9 71.6998 369.9 69.6998C369.9 67.2998 369.2 65.1998 367.8 63.6998C366.4 61.9998 364.5 61.1998 362.1 61.1998C360.2 61.1998 358.1 61.8998 355.7 63.2998C353.5 64.6998 351.5 67.0998 349.7 70.4998C347.9 73.7998 346.7 78.3998 346.2 84.2998C349.5 85.7998 352.5 86.5998 355.2 86.5998ZM365.4 34.7998C356 34.7998 347.2 36.6998 339.5 40.2998C332.1 43.8998 325.6 48.6998 320.3 54.5998L320.2 54.6998L320.1 54.7998C315 60.5998 310.9 67.1998 308.2 74.2998V74.3998V74.4998C305.5 81.5998 304.2 88.7998 304.2 95.8998C304.2 103.8 305.9 111.4 309.3 118.3C312.9 125.5 318.4 131.5 325.5 135.9L325.6 136L325.7 136.1C332.8 140.4 341.6 142.6 351.7 142.6C357.1 142.6 362.5 141.9 367.8 140.6H367.9H368C373.8 139.1 379.2 136.7 384.1 133.5C389.5 130 393.8 125.4 397.1 119.9C400.6 114 402.4 107 402.4 99.0998V92.3998L399.4 90.2998C403.4 83.8998 405.4 76.8998 405.4 69.3998C405.4 59.9998 401.8 51.4998 395 44.9998C388 38.1998 378.1 34.7998 365.4 34.7998Z" fill="white"/>
<path d="M311.1 48.1001C314.5 48.1001 317 49.4001 318.6 52.1001C320.2 54.8001 321 57.9001 321 61.6001C321 65.0001 320.3 68.4001 318.9 71.9001C317.6 75.4001 315.7 78.3001 313 80.6001C310.6 82.7001 307.6 83.8001 304.1 83.8001C303.9 83.8001 303.8 83.8001 303.6 83.8001L303 83.5001C302.9 80.7001 302 78.6001 300.3 77.0001C298.6 75.4001 296.7 74.6001 294.6 74.6001C291.7 74.6001 289 76.0001 286.5 78.9001C284.1 81.8001 282.8 85.9001 282.8 91.3001C282.8 94.6001 283.2 98.1001 283.9 102C284.6 105.8 285 109 285 111.7C285 114.9 284.3 117.8 282.8 120.4C281.3 123 279.4 125.2 277.1 126.8C274.8 128.3 272.2 129 269.5 129C265.7 129 262.3 127.5 259.3 124.4C256.3 121.2 254.8 116.8 254.8 111C254.8 108.2 255.1 105.1 255.8 101.6C256.4 98.1001 257.2 94.5001 258 90.9001C258.8 87.2001 259.6 83.7001 260.2 80.6001C260.8 77.3001 261.2 74.6001 261.2 72.5001C261.2 70.3001 260.8 68.5001 259.9 67.3001C259.2 65.9001 258.2 65.2001 256.9 65.2001C254.9 65.2001 252.8 66.6001 250.7 69.3001L249.7 68.7001C249.6 67.0001 250 65.0001 250.8 62.7001C251.6 60.4001 253 58.1001 254.8 56.0001C256.6 53.8001 258.9 51.9001 261.6 50.4001C264.5 48.9001 267.8 48.2001 271.6 48.2001C277.2 48.2001 281.3 49.8001 283.8 53.1001C286.3 56.3001 287.6 60.1001 287.6 64.7001C287.6 65.4001 287.5 66.2001 287.4 67.1001C287.4 67.8001 287.3 68.6001 287.2 69.3001C291 62.4001 295 57.2001 299.1 53.6001C303.6 50.0001 307.5 48.1001 311.1 48.1001ZM311.1 35.1001C304.7 35.1001 298.3 37.7001 292 42.8001C288.1 38.9001 281.7 35.3001 271.6 35.3001C265.7 35.3001 260.3 36.5001 255.6 39.0001H255.5H255.4C251.2 41.3001 247.6 44.2001 244.7 47.7001C241.9 51.0001 239.9 54.5001 238.5 58.2001C237 62.3001 236.4 66.0001 236.6 69.5001L237 75.9001L242.4 79.5001L243.4 80.1001L246.5 82.2001C246.1 84.1001 245.7 86.0001 245.2 88.0001C244.3 91.8001 243.5 95.6001 242.8 99.3001C242 103.5 241.6 107.5 241.6 111C241.6 120.1 244.3 127.6 249.5 133.2L249.6 133.3L249.7 133.4C255.1 139 261.9 142 269.2 142C274.5 142 279.4 140.6 283.8 137.7L284 137.6L284.2 137.5C288.2 134.8 291.5 131.2 293.9 126.8C296.5 122.2 297.8 117.1 297.8 111.7C297.8 108.2 297.4 104.2 296.4 99.5001C296.1 97.8001 295.8 96.1001 295.7 94.5001L296.9 95.1001L297.5 95.4001L300.1 96.7001L303 96.8001C303.3 96.8001 303.6 96.8001 303.9 96.8001C310.5 96.8001 316.6 94.6001 321.3 90.4001C325.6 86.6001 328.8 82.0001 330.8 76.5001C332.7 71.5001 333.7 66.5001 333.7 61.6001C333.7 55.5001 332.3 50.1001 329.5 45.4001C325.8 38.9001 319 35.1001 311.1 35.1001Z" fill="white"/>
<path d="M225 47.7998C232.8 47.7998 238.7 49.3998 242.5 52.5998C246.3 55.6998 248.2 59.0998 248.2 62.7998C248.2 66.6998 246.2 70.2998 242.3 73.5998C238.4 76.8998 232.7 78.4998 225.1 78.4998C225.5 76.8998 225.8 75.2998 226.1 73.6998C226.4 71.9998 226.6 70.3998 226.6 68.8998C226.6 66.6998 226.1 64.7998 225.2 63.2998C224.2 61.6998 222.6 60.8998 220.1 60.8998C217.9 60.8998 215.5 61.8998 212.9 63.8998C210.5 65.8998 208.3 68.8998 206.5 72.7998C204.8 76.6998 204 81.4998 204 87.2998C204 92.8998 204.9 97.4998 206.7 101C208.6 104.5 211 107 214 108.6C217 110.1 220.1 110.8 223.4 110.8C227.7 110.8 231.9 109.7 236 107.5C240 105.2 242.9 102 244.7 97.9998L246.3 98.5998C246.3 104.1 245 108.8 242.5 112.8C240.1 116.6 236.9 119.8 233 122.3C229.1 124.7 224.9 126.5 220.4 127.7C215.9 128.9 211.8 129.4 207.8 129.4C200.8 129.4 194.9 127.8 190 124.6C185.2 121.4 181.6 117.3 179.2 112.2C176.8 107 175.5 101.4 175.5 95.4998C175.5 89.8998 176.6 84.2998 178.7 78.5998C180.9 72.9998 184.2 67.7998 188.4 63.1998C192.6 58.3998 197.8 54.6998 203.8 51.8998C210 49.2998 217.1 47.7998 225 47.7998ZM225 34.7998C215.2 34.7998 206.2 36.5998 198.4 40.2998C190.8 43.7998 184.2 48.5998 178.8 54.6998C173.5 60.4998 169.5 66.9998 166.7 73.9998V74.0998V74.1998C164 81.2998 162.7 88.4998 162.7 95.5998C162.7 103.4 164.3 110.9 167.6 117.8C171.1 125 176.2 130.9 182.9 135.4H183H183.1C190.1 140 198.5 142.3 208 142.3C213 142.3 218.3 141.6 223.9 140.1C229.6 138.6 235 136.3 240 133.2L240.1 133.1L240.2 133C245.7 129.5 250.2 124.9 253.6 119.6C257.5 113.6 259.5 106.4 259.5 98.3998V89.5998L251.3 86.2998L249.7 85.6998L248.3 85.0998C249.2 84.4998 250 83.8998 250.8 83.1998C259.5 75.8998 261.3 67.8998 261.3 62.3998C261.3 56.9998 259.5 49.1998 250.8 42.1998C244.6 37.3998 235.9 34.7998 225 34.7998ZM217.3 91.4998H225.2C228.2 91.4998 231.1 91.2998 233.7 90.8998L232.9 92.7998C232.2 94.2998 231.2 95.3998 229.6 96.2998C227.5 97.3998 225.5 97.9998 223.4 97.9998C222.2 97.9998 221.1 97.7998 220 97.1998C219.4 96.7998 218.8 96.0998 218.2 94.9998C217.9 94.3998 217.5 93.2998 217.3 91.4998Z" fill="white"/>
<path d="M145.8 47.7998C155.1 47.7998 161.9 49.8998 166.2 54.1998C170.5 58.2998 172.7 63.3998 172.7 69.2998C172.7 74.3998 171.3 79.0998 168.6 83.4998C166 87.6998 162.4 91.1998 157.9 93.7998C153.4 96.2998 148.6 97.5998 143.3 97.5998C140.5 97.5998 137.7 97.1998 134.9 96.2998C132 95.4998 129.2 94.0998 126.5 92.2998C127 98.8998 128.9 103.6 132.2 106.6C135.5 109.6 139.4 111.1 144 111.1C147.2 111.1 150.4 110.5 153.5 109.4C156.7 108.1 159.6 106.5 162.2 104.6C165 102.6 167.1 100.5 168.6 98.1998L169.7 98.9998C169.7 104.5 168.5 109.2 166.2 113.2C164 117 161 120.1 157.3 122.6C153.6 125 149.5 126.8 145.1 128C140.8 129.1 136.4 129.6 132.1 129.6C124.4 129.6 117.9 128.1 112.9 125C107.8 121.8 104 117.7 101.5 112.6C99.0001 107.4 97.7001 101.8 97.7001 95.8998C97.7001 90.2998 98.8001 84.6998 100.9 78.9998C103.1 73.2998 106.3 68.0998 110.4 63.3998C114.6 58.6998 119.7 54.9998 125.7 52.0998C131.5 49.2998 138.3 47.7998 145.8 47.7998ZM135.6 86.5998C139 86.5998 141.7 85.5998 143.9 83.6998C146 81.6998 147.6 79.3998 148.7 76.6998C149.8 73.9998 150.3 71.6998 150.3 69.6998C150.3 67.2998 149.6 65.1998 148.2 63.6998C146.8 61.9998 144.9 61.1998 142.5 61.1998C140.6 61.1998 138.5 61.8998 136.1 63.2998C133.9 64.6998 131.9 67.0998 130.1 70.4998C128.3 73.7998 127.1 78.3998 126.6 84.2998C129.9 85.7998 133 86.5998 135.6 86.5998ZM145.8 34.7998C136.4 34.7998 127.6 36.6998 119.9 40.2998C112.5 43.8998 106 48.6998 100.7 54.5998L100.6 54.6998L100.5 54.7998C95.4001 60.5998 91.3001 67.1998 88.6001 74.2998V74.3998V74.4998C85.9001 81.5998 84.6001 88.7998 84.6001 95.8998C84.6001 103.8 86.3001 111.3 89.7001 118.3C93.3001 125.5 98.8001 131.5 105.9 135.9L106 136L106.1 136.1C113.2 140.4 122 142.6 132.1 142.6C137.5 142.6 142.9 141.9 148.2 140.6H148.3H148.4C154.2 139.1 159.6 136.7 164.5 133.5C169.9 130 174.2 125.4 177.5 119.8C181 113.9 182.8 106.9 182.8 99.0998V92.3998L179.8 90.2998C183.8 83.8998 185.8 76.8998 185.8 69.3998C185.8 59.9998 182.2 51.4998 175.4 44.9998C168.5 38.1998 158.6 34.7998 145.8 34.7998Z" fill="white"/>
<path d="M44.2 129.4C37.1 129.4 31.2 128.2 26.5 125.7C21.9 123.3 18.5 120.1 16.3 116.3C14.1 112.5 13 108.6 13 104.5C13 100.6 14 96.8998 15.9 93.3998C17.8 89.7998 20.5 86.7998 24 84.4998C27.6 82.1998 31.8 80.9998 36.7 80.9998C36.6 81.9998 36.5 82.8998 36.5 83.6998C36.5 84.3998 36.5 84.7998 36.5 84.7998C36.5 91.8998 37.2 97.4998 38.6 101.7C40 105.7 41.7 108.6 43.8 110.4C45.9 112.1 48.1 112.9 50.3 112.9C53.7 112.9 56.7 111.6 59.4 108.9C62.1 106.1 63.4 103 63.4 99.3998C63.4 95.3998 61.7 91.7998 58.2 88.6998C54.8 85.5998 50.5 82.1998 45.2 78.4998C42.2 76.2998 39.1 73.7998 35.7 70.9998C32.4 68.0998 29.6 64.7998 27.3 60.9998C25 57.0998 23.8 52.4998 23.8 47.1998C23.8 41.6998 25.1 36.7998 27.6 32.5998C30.3 28.3998 33.7 24.7998 37.9 21.8998C42.2 18.8998 47 16.6998 52.1 15.1998C57.3 13.5998 62.4 12.7998 67.5 12.7998C73.8 12.7998 78.9 13.7998 82.9 15.7998C86.9 17.7998 90 20.3998 92 23.5998C94 26.7998 95 30.0998 95 33.4998C95 36.6998 94.1 39.7998 92.3 42.6998C90.6 45.5998 88.1 47.8998 84.7 49.6998C81.3 51.4998 77.1 52.3998 72.1 52.3998C72.4 50.8998 72.6 49.5998 72.7 48.3998C72.8 47.0998 72.9 45.9998 72.9 45.0998C72.9 39.7998 71.7 35.9998 69.4 33.7998C67.2 31.4998 64.7 30.2998 61.9 30.2998C59.2 30.2998 56.7 31.2998 54.3 33.2998C51.9 35.1998 50.6 38.2998 50.6 42.6998C50.6 46.3998 51.6 49.5998 53.5 52.1998C55.5 54.8998 58.1 57.1998 61.1 59.1998C64.3 61.1998 67.6 63.1998 71.1 65.0998C74.7 66.9998 78.2 69.0998 81.4 71.4998C84.8 73.6998 87.6 76.3998 89.8 79.4998C92 82.5998 93.1 86.3998 93.1 91.0998C93.1 95.9998 91.8 100.7 89.1 105.4C86.4 110 82.8 114 78.3 117.6C73.7 121.1 68.5 123.9 62.6 126C56.8 128.3 50.6 129.4 44.2 129.4Z" fill="#FE9EBF"/>
<path d="M67.4 13C73.7 13 78.8 14 82.8 16C86.8 18 89.9 20.6 91.9 23.8C93.9 27 94.9 30.3 94.9 33.7C94.9 36.9 94 40 92.2 42.9C90.5 45.8 88 48.1 84.6 49.9C81.2 51.7 77 52.6 72 52.6C72.3 51.1 72.5 49.8 72.6 48.6C72.7 47.3 72.8 46.2 72.8 45.3C72.8 40 71.6 36.2 69.3 34C67.1 31.7 64.6 30.5 61.8 30.5C59.1 30.5 56.6 31.5 54.2 33.5C51.8 35.4 50.5 38.5 50.5 42.9C50.5 46.6 51.5 49.8 53.4 52.4C55.4 55.1 58 57.4 61 59.4C64.2 61.4 67.5 63.4 71 65.3C74.6 67.2 78.1 69.3 81.3 71.7C84.7 73.9 87.5 76.6 89.7 79.7C91.9 82.8 93 86.6 93 91.3C93 96.2 91.7 100.9 89 105.6C86.3 110.2 82.7 114.2 78.2 117.8C73.6 121.3 68.4 124.1 62.5 126.2C56.7 128.3 50.5 129.4 44.1 129.4C37 129.4 31.1 128.2 26.4 125.7C21.8 123.3 18.4 120.1 16.2 116.3C14 112.5 12.9 108.6 12.9 104.5C12.9 100.6 13.9 96.9 15.8 93.4C17.7 89.8 20.4 86.8 23.9 84.5C27.5 82.2 31.7 81 36.6 81C36.5 82 36.4 82.9 36.4 83.7C36.4 84.4 36.4 84.8 36.4 84.8C36.4 91.9 37.1 97.5 38.5 101.7C39.9 105.7 41.6 108.6 43.7 110.4C45.8 112.1 48 112.9 50.2 112.9C53.6 112.9 56.6 111.6 59.3 108.9C62 106.1 63.3 103 63.3 99.4C63.3 95.4 61.6 91.8 58.1 88.7C54.7 85.6 50.4 82.2 45.1 78.5C42.1 76.3 39 73.8 35.6 71C32.3 68.1 29.5 64.8 27.2 61C24.9 57.1 23.7 52.5 23.7 47.2C23.7 41.7 25 36.8 27.5 32.6C30.2 28.4 33.6 24.8 37.8 21.9C42.1 18.9 46.9 16.7 52 15.2C57.2 13.8 62.3 13 67.4 13ZM67.4 0C61.1 0 54.6 1 48.3 2.9C42 4.8 36 7.6 30.6 11.3C24.9 15.2 20.1 20.1 16.5 25.8L16.4 25.9L16.3 26C12.5 32.3 10.6 39.4 10.6 47.3C10.6 54.9 12.4 61.8 15.9 67.8V67.9V68C16.8 69.5 17.8 71 18.9 72.4C18.2 72.8 17.5 73.2 16.8 73.7H16.7H16.6C11.3 77.2 7.2 81.8 4.3 87.3C1.5 92.7 0 98.5 0 104.6C0 110.9 1.7 117.1 5.1 122.9C8.5 128.8 13.7 133.6 20.4 137.2H20.5H20.6C27.1 140.6 35.1 142.3 44.3 142.3C52.2 142.3 59.9 141 67.2 138.4C74.4 135.8 80.8 132.4 86.5 128.1L86.6 128L86.7 127.9C92.5 123.3 97.2 117.9 100.7 112V111.9V111.8C104.5 105.2 106.4 98.2 106.4 91.1C106.4 83.7 104.4 77.2 100.6 71.9C97.8 68 94.3 64.6 90.2 61.7C90.5 61.6 90.7 61.4 91 61.3C96.5 58.4 100.8 54.4 103.7 49.5C106.7 44.5 108.3 39.1 108.3 33.6C108.3 27.7 106.6 22.1 103.3 16.8C100 11.6 95.2 7.4 89.1 4.3C82.8 1.5 75.6 0 67.4 0Z" fill="white"/>
<path d="M412.3 254.2C408.6 254.2 405.4 253 402.6 250.5C399.8 248.1 398.5 244.1 398.5 238.6C398.5 238.1 398.5 237.5 398.5 237C398.5 236.5 398.6 235.9 398.7 235.4C395.5 241.8 391.9 246.5 387.9 249.6C384 252.6 380 254.1 376 254.1C372.3 254.1 368.8 252.8 365.5 250.3C362.2 247.6 359.6 243.8 357.5 238.7C355.5 233.6 354.5 227.5 354.5 220.3C354.5 212.9 355.5 206.3 357.5 200.4C359.6 194.6 362.4 189.6 365.8 185.6C369.2 181.6 372.9 178.5 376.9 176.5C380.9 174.4 384.9 173.3 388.7 173.3C392.9 173.3 396.8 174.6 400.2 177.3C403.6 179.8 405.9 183.9 407.2 189.5C407.5 187.7 407.7 186.1 407.8 184.6C408 183.1 408.1 182.1 408.1 181.6C408.2 178.7 409.6 176.6 412.4 175.2C415.3 173.8 418.4 173.1 421.8 173.1C424.8 173.1 427.6 173.7 430.2 174.8C432.8 175.9 434.7 177.9 435.6 180.7L435.9 181.7C434.6 184.6 433.4 188 432.1 192C430.8 196 429.7 200.3 428.6 204.7C427.5 209 426.7 213.3 426.1 217.6C425.5 221.7 425.1 225.4 425.1 228.6C425.1 232.1 425.5 234.5 426.2 235.9C426.9 237.2 427.8 237.8 428.9 237.8C430.7 237.8 432.3 236.5 433.8 234L435.1 234.6C435.1 238.2 433.9 241.5 431.6 244.5C429.3 247.5 426.4 249.9 422.9 251.7C419.3 253.4 415.8 254.2 412.3 254.2ZM386.4 234C389.2 234 392.2 231.6 395.5 226.7C398.9 221.7 401.8 214.6 404.2 205.4C404.4 204.4 404.6 203.5 404.8 202.7C405 201.7 405.2 200.8 405.3 200C403.6 196.1 401.8 193.3 399.9 191.7C398.1 190 396.3 189.2 394.5 189.2C391.9 189.2 389.4 190.6 387 193.5C384.8 196.3 382.9 199.8 381.4 204C380 208.2 379.3 212.5 379.3 216.7C379.3 222.5 379.9 226.9 381.2 229.7C382.7 232.6 384.4 234 386.4 234Z" fill="#FD4801"/>
<path d="M326.5 254.1C323.1 254.1 319.9 253.4 316.8 251.9C313.8 250.3 311.4 247.9 309.5 244.6C307.7 241.3 306.8 237.1 306.8 232C306.8 229.2 307.1 225.6 307.6 221.2C308.1 216.7 308.8 211.9 309.7 206.6C310.7 201.3 311.6 196 312.6 190.7C310.5 190.8 308.4 191 306.4 191.3C304.5 191.6 302.6 192 300.7 192.4L300.4 191.3C302.5 188.8 304.7 186.6 307.1 184.8C309.4 183 311.9 181.5 314.4 180.3C315.8 173.3 316.9 167.3 317.9 162.2C318.9 157 319.3 153.9 319.3 153C319.3 151.2 320.7 149.7 323.4 148.5C326.3 147.3 329.4 146.7 332.9 146.7C336 146.7 338.8 147.3 341.5 148.5C344.3 149.7 346.1 151.6 347.1 154.4C346.5 155 345.6 157.4 344.4 161.6C343.2 165.6 342 170.6 340.7 176.4C342.7 176.5 344.8 176.6 346.9 176.7C349 176.8 351.2 177 353.4 177.2C353.6 177.8 353.8 178.5 353.9 179.3C354 180 354.1 180.8 354.1 181.7C354.1 183.3 353.8 185 353.3 186.9C352.9 188.7 352.3 190.3 351.7 191.8C349.2 191.6 346.8 191.4 344.5 191.2C342.3 190.9 340.1 190.7 338 190.6C337.2 195.2 336.4 199.7 335.6 204.3C335 208.9 334.4 213 334 216.7C333.7 220.4 333.5 223.3 333.5 225.4C333.5 229.9 334.3 232.8 335.9 234.3C337.6 235.8 339.6 236.5 341.9 236.5C344 236.5 345.9 236.1 347.6 235.2C349.3 234.4 350.5 233.3 351.3 232.2L352.9 232.7C352.3 237 350.6 240.9 347.8 244.1C345 247.3 341.8 249.8 337.9 251.6C334.1 253.2 330.3 254.1 326.5 254.1Z" fill="#FD4801"/>
<path d="M233.3 253.9C229.4 253.9 225.8 252.4 222.6 249.3C219.4 246.1 217.8 241.7 217.8 236.1C217.8 233.3 218.2 230.2 218.9 226.7C219.6 223.2 220.4 219.6 221.3 216C222.3 212.4 223.1 209 223.8 205.8C224.5 202.6 224.9 200 224.9 198C224.9 195.9 224.5 194.2 223.6 193.1C222.8 191.8 221.6 191.2 220.3 191.2C218.5 191.2 216.5 192.3 214.4 194.4L213.4 193.8C213.3 192.1 213.7 190.1 214.5 187.8C215.3 185.5 216.6 183.2 218.3 181.1C220.1 178.9 222.4 177 225.1 175.5C227.9 174 231.1 173.3 235 173.3C240.6 173.3 244.8 174.9 247.4 178.2C250.2 181.4 251.5 185.3 251.5 190C251.5 191.7 251.3 193.3 251 194.9C253.2 191.6 256 188.3 259.3 185C262.6 181.6 266.2 178.8 270.1 176.6C274.1 174.4 278.3 173.3 282.5 173.3C287.5 173.3 290.9 174.9 292.7 178.1C294.5 181.3 295.4 185.3 295.4 190C295.4 194.5 294.9 199.2 294 204.3C293 209.4 292.1 214.3 291.1 219.1C290.1 223.8 289.7 227.7 289.7 230.9C289.7 235.1 290.9 237.3 293.4 237.3C294.7 237.3 295.8 236.9 296.7 236.2C297.7 235.4 298.3 234.6 298.6 233.8L299.7 234.3C299.7 238.2 298.6 241.7 296.4 244.6C294.3 247.6 291.6 249.9 288.3 251.6C285 253.2 281.7 254 278.3 254C274.2 254 270.5 252.6 267.3 249.7C264.1 246.8 262.5 242.2 262.5 235.7C262.5 231.9 263 227.7 263.9 223.3C265 218.8 266 214.6 266.9 210.4C267.9 206.3 268.3 202.9 268.3 200.2C268.3 198.6 268 197.4 267.3 196.5C266.8 195.5 265.8 195.1 264.3 195.1C261.9 195.1 259.2 196.2 256.2 198.4C253.3 200.6 250.8 203.6 248.7 207.3C246.7 211 245.7 215.1 245.7 219.5C245.7 222.4 246 225.1 246.7 227.8C247.4 230.5 247.8 233.3 247.8 236.4C247.8 242.1 246.3 246.5 243.3 249.4C240.7 252.4 237.2 253.9 233.3 253.9Z" fill="#FD4801"/>
<path d="M187.6 254.2C183.9 254.2 180.7 253 177.9 250.5C175.1 248.1 173.8 244.1 173.8 238.6C173.8 238.1 173.8 237.5 173.8 237C173.8 236.5 173.9 235.9 174 235.4C170.8 241.8 167.2 246.5 163.2 249.6C159.3 252.6 155.3 254.1 151.3 254.1C147.6 254.1 144.1 252.8 140.8 250.3C137.5 247.6 134.9 243.8 132.8 238.7C130.8 233.6 129.8 227.5 129.8 220.3C129.8 212.9 130.8 206.3 132.8 200.4C134.9 194.6 137.7 189.6 141.1 185.6C144.5 181.6 148.2 178.5 152.2 176.5C156.2 174.4 160.2 173.3 164 173.3C168.2 173.3 172.1 174.6 175.5 177.3C178.9 179.8 181.2 183.9 182.5 189.5C182.8 187.7 183 186.1 183.1 184.6C183.3 183.1 183.4 182.1 183.4 181.6C183.5 178.7 184.9 176.6 187.7 175.2C190.6 173.8 193.7 173.1 197.1 173.1C200.1 173.1 202.9 173.7 205.5 174.8C208.2 176 210 177.9 210.9 180.7L211.2 181.7C209.9 184.6 208.7 188 207.4 192C206.1 196 205 200.3 203.9 204.7C202.8 209 202 213.3 201.4 217.6C200.8 221.7 200.4 225.4 200.4 228.6C200.4 232.1 200.8 234.5 201.5 235.9C202.2 237.2 203.1 237.8 204.2 237.8C206 237.8 207.6 236.5 209.1 234L210.4 234.6C210.4 238.2 209.2 241.5 206.9 244.5C204.6 247.5 201.7 249.9 198.2 251.7C194.6 253.4 191.1 254.2 187.6 254.2ZM161.7 234C164.5 234 167.5 231.6 170.8 226.7C174.2 221.7 177.1 214.6 179.5 205.4C179.7 204.4 179.9 203.5 180.1 202.7C180.3 201.7 180.5 200.8 180.6 200C178.9 196.1 177.1 193.3 175.2 191.7C173.4 190 171.6 189.2 169.8 189.2C167.2 189.2 164.7 190.6 162.3 193.5C160.1 196.3 158.2 199.8 156.7 204C155.3 208.2 154.6 212.5 154.6 216.7C154.6 222.5 155.2 226.9 156.5 229.7C158 232.6 159.7 234 161.7 234Z" fill="#FD4801"/>
<path d="M132 129.6C124.3 129.6 117.8 128.1 112.8 125C107.7 121.8 103.9 117.7 101.4 112.6C98.9001 107.4 97.6001 101.8 97.6001 95.8998C97.6001 90.2998 98.7001 84.6998 100.8 78.9998C103 73.2998 106.2 68.0998 110.3 63.3998C114.5 58.6998 119.6 54.9998 125.6 52.0998C131.6 49.1998 138.4 47.7998 146 47.7998C155.3 47.7998 162.1 49.8998 166.4 54.1998C170.7 58.2998 172.9 63.3998 172.9 69.2998C172.9 74.3998 171.5 79.0998 168.8 83.4998C166.2 87.6998 162.6 91.1998 158.1 93.7998C153.6 96.2998 148.8 97.5998 143.5 97.5998C140.7 97.5998 137.9 97.1998 135.1 96.2998C132.2 95.4998 129.4 94.0998 126.7 92.2998C127.2 98.8998 129.1 103.6 132.4 106.6C135.7 109.6 139.6 111.1 144.2 111.1C147.4 111.1 150.6 110.5 153.7 109.4C156.9 108.1 159.8 106.5 162.4 104.6C165.2 102.6 167.3 100.5 168.8 98.1998L169.9 98.9998C169.9 104.5 168.7 109.2 166.4 113.2C164.2 117 161.2 120.1 157.5 122.6C153.8 125 149.7 126.8 145.3 128C140.6 129 136.3 129.6 132 129.6ZM135.6 86.5998C139 86.5998 141.7 85.5998 143.9 83.6998C146 81.6998 147.6 79.3998 148.7 76.6998C149.8 73.9998 150.3 71.6998 150.3 69.6998C150.3 67.2998 149.6 65.1998 148.2 63.6998C146.8 61.9998 144.9 61.1998 142.5 61.1998C140.6 61.1998 138.5 61.8998 136.1 63.2998C133.9 64.6998 131.9 67.0998 130.1 70.4998C128.3 73.7998 127.1 78.3998 126.6 84.2998C129.9 85.7998 133 86.5998 135.6 86.5998Z" fill="#FE9EBF"/>
<path d="M207.9 129.6C200.9 129.6 195 128 190.1 124.8C185.3 121.6 181.7 117.5 179.3 112.4C176.9 107.2 175.6 101.6 175.6 95.6998C175.6 90.0998 176.7 84.4998 178.8 78.7998C181 73.1998 184.3 67.9998 188.5 63.3998C192.7 58.5998 197.9 54.8998 203.9 52.0998C210 49.1998 217.1 47.7998 225 47.7998C232.8 47.7998 238.7 49.3998 242.5 52.5998C246.3 55.6998 248.2 59.0998 248.2 62.7998C248.2 66.6998 246.2 70.2998 242.3 73.5998C238.4 76.8998 232.7 78.4998 225.1 78.4998C225.5 76.8998 225.8 75.2998 226.1 73.6998C226.4 71.9998 226.6 70.3998 226.6 68.8998C226.6 66.6998 226.1 64.7998 225.2 63.2998C224.2 61.6998 222.6 60.8998 220.1 60.8998C217.9 60.8998 215.5 61.8998 212.9 63.8998C210.5 65.8998 208.3 68.8998 206.5 72.7998C204.8 76.6998 204 81.4998 204 87.2998C204 92.8998 204.9 97.4998 206.7 101C208.6 104.5 211 107 214 108.6C217 110.1 220.1 110.8 223.4 110.8C227.7 110.8 231.9 109.7 236 107.5C240 105.2 242.9 102 244.7 97.9998L246.3 98.5998C246.3 104.1 245 108.8 242.5 112.8C240.1 116.6 236.9 119.8 233 122.3C229.1 124.7 224.9 126.5 220.4 127.7C216 129 211.8 129.6 207.9 129.6Z" fill="#FE9EBF"/>
<path d="M269.4 129.1C265.6 129.1 262.2 127.6 259.2 124.5C256.2 121.3 254.7 116.9 254.7 111.1C254.7 108.3 255 105.2 255.7 101.7C256.3 98.2001 257.1 94.6001 257.9 91.0001C258.7 87.3001 259.5 83.8001 260.1 80.7001C260.7 77.4001 261.1 74.7001 261.1 72.6001C261.1 70.4001 260.7 68.6001 259.8 67.4001C259.1 66.0001 258.1 65.3001 256.8 65.3001C254.8 65.3001 252.7 66.7001 250.6 69.4001L249.6 68.8001C249.5 67.1001 249.9 65.1001 250.7 62.8001C251.5 60.5001 252.9 58.2001 254.7 56.1001C256.5 53.9001 258.8 52.0001 261.5 50.5001C264.4 49.0001 267.7 48.3001 271.5 48.3001C277.1 48.3001 281.2 49.9001 283.7 53.2001C286.2 56.4001 287.5 60.2001 287.5 64.8001C287.5 65.5001 287.4 66.3001 287.3 67.2001C287.3 67.9001 287.2 68.7001 287.1 69.4001C290.9 62.5001 294.9 57.3001 299 53.7001C303.2 50.0001 307.2 48.1001 310.8 48.1001C314.2 48.1001 316.7 49.4001 318.3 52.1001C319.9 54.8001 320.7 57.9001 320.7 61.6001C320.7 65.0001 320 68.4001 318.6 71.9001C317.3 75.4001 315.4 78.3001 312.7 80.6001C310.2 82.8001 307 83.9001 303.3 83.8001L302.7 83.5001C302.6 80.7001 301.7 78.6001 300 77.0001C298.3 75.4001 296.4 74.6001 294.3 74.6001C291.4 74.6001 288.7 76.0001 286.2 78.9001C283.8 81.8001 282.5 85.9001 282.5 91.3001C282.5 94.6001 282.9 98.1001 283.6 102C284.3 105.8 284.7 109 284.7 111.7C284.7 114.9 284 117.8 282.5 120.4C281 123 279.1 125.2 276.8 126.8C274.7 128.3 272.2 129.1 269.4 129.1Z" fill="#FE9EBF"/>
<path d="M351.5 129.6C343.8 129.6 337.3 128.1 332.3 125C327.2 121.8 323.4 117.7 320.9 112.6C318.4 107.4 317.1 101.8 317.1 95.8998C317.1 90.2998 318.2 84.6998 320.3 78.9998C322.5 73.2998 325.7 68.0998 329.8 63.3998C334 58.6998 339.1 54.9998 345.1 52.0998C351.1 49.1998 357.9 47.7998 365.5 47.7998C374.8 47.7998 381.6 49.8998 385.9 54.1998C390.2 58.2998 392.4 63.3998 392.4 69.2998C392.4 74.3998 391 79.0998 388.3 83.4998C385.7 87.6998 382.1 91.1998 377.6 93.7998C373.1 96.2998 368.3 97.5998 363 97.5998C360.2 97.5998 357.4 97.1998 354.6 96.2998C351.7 95.4998 348.9 94.0998 346.2 92.2998C346.7 98.8998 348.6 103.6 351.9 106.6C355.2 109.6 359.1 111.1 363.7 111.1C366.9 111.1 370.1 110.5 373.2 109.4C376.4 108.1 379.3 106.5 381.9 104.6C384.7 102.6 386.8 100.5 388.3 98.1998L389.4 98.9998C389.4 104.5 388.2 109.2 385.9 113.2C383.7 117 380.7 120.1 377 122.6C373.3 125 369.2 126.8 364.8 128C360.2 129 355.9 129.6 351.5 129.6ZM355.2 86.5998C358.6 86.5998 361.3 85.5998 363.5 83.6998C365.6 81.6998 367.2 79.3998 368.3 76.6998C369.4 73.9998 369.9 71.6998 369.9 69.6998C369.9 67.2998 369.2 65.1998 367.8 63.6998C366.4 61.9998 364.5 61.1998 362.1 61.1998C360.2 61.1998 358.1 61.8998 355.7 63.2998C353.5 64.6998 351.5 67.0998 349.7 70.4998C347.9 73.7998 346.7 78.3998 346.2 84.2998C349.5 85.7998 352.5 86.5998 355.2 86.5998Z" fill="#FE9EBF"/>
<path d="M418.8 129.1C415.4 129.1 412.2 128.4 409.1 126.9C406.1 125.3 403.7 122.9 401.8 119.6C400 116.3 399.1 112.1 399.1 107C399.1 104.2 399.4 100.6 399.9 96.1998C400.4 91.6998 401.1 86.8998 402 81.5998C403 76.2998 403.9 70.9998 404.9 65.6998C402.8 65.7998 400.7 65.9998 398.7 66.2998C396.8 66.5998 394.9 66.9998 393 67.3998L392.7 66.2998C394.8 63.7998 397 61.5998 399.4 59.7998C401.7 57.9998 404.2 56.4998 406.7 55.2998C408.1 48.2998 409.2 42.2998 410.2 37.1998C411.2 31.9998 411.6 28.8998 411.6 27.9998C411.6 26.1998 413 24.6998 415.7 23.4998C418.6 22.2998 421.7 21.7998 425.2 21.7998C428.3 21.7998 431.1 22.3998 433.8 23.4998C436.6 24.6998 438.4 26.5998 439.4 29.3998C438.8 29.9998 437.9 32.3998 436.7 36.5998C435.5 40.5998 434.3 45.5998 433 51.3998C435 51.4998 437.1 51.5998 439.2 51.6998C441.3 51.7998 443.5 51.9998 445.7 52.1998C445.9 52.7998 446.1 53.4998 446.2 54.2998C446.3 54.9998 446.4 55.7998 446.4 56.6998C446.4 58.2998 446.1 59.9998 445.6 61.8998C445.2 63.6998 444.6 65.2998 444 66.7998C441.5 66.5998 439.1 66.3998 436.8 66.1998C434.6 65.8998 432.4 65.6998 430.3 65.5998C429.5 70.1998 428.7 74.6998 427.9 79.2998C427.3 83.8998 426.7 87.9998 426.3 91.6998C426 95.3998 425.8 98.2998 425.8 100.4C425.8 104.9 426.6 107.8 428.2 109.3C429.9 110.8 431.9 111.5 434.2 111.5C436.3 111.5 438.2 111.1 439.9 110.2C441.6 109.4 442.8 108.3 443.6 107.2L445.2 107.7C444.6 112 442.9 115.9 440.1 119.1C437.3 122.3 434.1 124.8 430.2 126.6C426.5 128.2 422.7 129.1 418.8 129.1Z" fill="#FE9EBF"/>
</g>
<defs>
<clipPath id="clip0_251_4882">
<rect width="459.7" height="267.4" fill="white"/>
</clipPath>
</defs>
</svg>
