<svg width="200" height="112" viewBox="0 0 200 112" fill="none" xmlns="http://www.w3.org/2000/svg">
<path d="M184.022 111.574C182.312 111.574 180.821 111.012 179.551 109.888C178.281 108.764 177.646 106.932 177.646 104.392C177.646 104.147 177.646 103.903 177.646 103.659C177.646 103.414 177.67 103.17 177.719 102.926C176.253 105.857 174.592 108.032 172.735 109.448C170.927 110.816 169.095 111.501 167.239 111.501C165.529 111.501 163.916 110.914 162.402 109.742C160.887 108.52 159.666 106.737 158.737 104.392C157.809 102.046 157.345 99.2125 157.345 95.8901C157.345 92.47 157.809 89.4163 158.737 86.7291C159.714 84.0418 160.985 81.7699 162.548 79.9133C164.112 78.0566 165.822 76.6641 167.678 75.7358C169.535 74.7587 171.343 74.2701 173.102 74.2701C175.056 74.2701 176.815 74.8808 178.378 76.1023C179.942 77.2749 181.017 79.1559 181.603 81.7455C181.75 80.9149 181.847 80.1576 181.896 79.4735C181.994 78.7895 182.043 78.3253 182.043 78.0811C182.092 76.7619 182.751 75.7847 184.022 75.1495C185.341 74.5144 186.782 74.1968 188.346 74.1968C189.714 74.1968 191.008 74.4655 192.23 75.003C193.451 75.5404 194.282 76.4443 194.722 77.7146L194.868 78.1543C194.282 79.4735 193.696 81.0614 193.109 82.9181C192.523 84.7747 191.986 86.7291 191.497 88.7811C191.008 90.7844 190.618 92.7631 190.324 94.7175C190.031 96.623 189.885 98.3086 189.885 99.7744C189.885 101.387 190.056 102.51 190.398 103.146C190.74 103.732 191.155 104.025 191.644 104.025C192.474 104.025 193.232 103.439 193.916 102.266L194.502 102.559C194.502 104.221 193.964 105.735 192.89 107.103C191.815 108.471 190.471 109.571 188.859 110.401C187.246 111.183 185.634 111.574 184.022 111.574ZM172.076 102.266C173.346 102.266 174.738 101.142 176.253 98.8949C177.817 96.5986 179.16 93.325 180.284 89.0743C180.382 88.6346 180.479 88.2193 180.577 87.8284C180.675 87.3887 180.748 86.9734 180.797 86.5825C180.015 84.7747 179.185 83.5044 178.305 82.7715C177.475 81.9898 176.644 81.5989 175.813 81.5989C174.592 81.5989 173.444 82.2585 172.369 83.5777C171.343 84.848 170.488 86.4604 169.804 88.4147C169.169 90.3691 168.851 92.3234 168.851 94.2778C168.851 96.965 169.144 98.9682 169.73 100.287C170.366 101.607 171.147 102.266 172.076 102.266Z" fill="#EFE9CB"/>
<path d="M144.471 111.5C142.907 111.5 141.417 111.158 140 110.474C138.632 109.741 137.509 108.618 136.629 107.103C135.799 105.588 135.383 103.658 135.383 101.313C135.383 100.043 135.505 98.3817 135.75 96.3297C135.994 94.2776 136.312 92.0301 136.702 89.5871C137.142 87.1442 137.582 84.7013 138.022 82.2583C137.044 82.3072 136.092 82.4049 135.163 82.5515C134.284 82.698 133.404 82.8691 132.525 83.0645L132.378 82.5515C133.356 81.3789 134.382 80.3773 135.457 79.5467C136.531 78.7161 137.655 78.032 138.828 77.4946C139.463 74.2699 140 71.4849 140.44 69.1397C140.88 66.7456 141.1 65.3287 141.1 64.889C141.1 64.0584 141.735 63.3744 143.005 62.8369C144.324 62.2995 145.79 62.0308 147.403 62.0308C148.819 62.0308 150.139 62.2995 151.36 62.8369C152.63 63.3744 153.485 64.2783 153.925 65.5486C153.632 65.8417 153.217 66.9411 152.679 68.8466C152.142 70.7032 151.58 72.9751 150.994 75.6624C151.922 75.7112 152.875 75.7601 153.852 75.809C154.829 75.8578 155.831 75.9311 156.857 76.0288C156.954 76.322 157.028 76.6396 157.077 76.9816C157.125 77.3236 157.15 77.69 157.15 78.0809C157.15 78.8138 157.028 79.6199 156.783 80.4994C156.588 81.33 156.344 82.0873 156.051 82.7713C154.878 82.6736 153.779 82.5759 152.753 82.4782C151.727 82.3316 150.725 82.2339 149.748 82.185C149.357 84.286 148.99 86.3869 148.648 88.4878C148.355 90.5888 148.111 92.4942 147.916 94.2043C147.769 95.9144 147.696 97.258 147.696 98.2352C147.696 100.287 148.062 101.655 148.795 102.339C149.577 103.023 150.505 103.365 151.58 103.365C152.557 103.365 153.437 103.17 154.218 102.779C155 102.388 155.562 101.924 155.904 101.387L156.637 101.606C156.344 103.61 155.562 105.369 154.292 106.883C153.021 108.349 151.507 109.497 149.748 110.328C147.989 111.109 146.23 111.5 144.471 111.5Z" fill="#EFE9CB"/>
<path d="M101.537 111.427C99.7295 111.427 98.0927 110.719 96.627 109.302C95.1612 107.836 94.4283 105.808 94.4283 103.219C94.4283 101.949 94.5993 100.507 94.9413 98.8949C95.2834 97.2825 95.6498 95.6458 96.0407 93.9846C96.4804 92.3234 96.8713 90.7599 97.2133 89.2941C97.5553 87.8283 97.7263 86.6313 97.7263 85.703C97.7263 84.7258 97.5309 83.9685 97.14 83.4311C96.7491 82.8447 96.2361 82.5516 95.6009 82.5516C94.7703 82.5516 93.8665 83.0402 92.8893 84.0174L92.4495 83.7242C92.4007 82.9425 92.5717 82.0141 92.9626 80.9393C93.3534 79.8644 93.9397 78.8383 94.7215 77.8611C95.5521 76.8351 96.6026 75.9801 97.8729 75.2961C99.1432 74.612 100.658 74.27 102.417 74.27C105.006 74.27 106.912 75.0273 108.133 76.542C109.404 78.0077 110.039 79.8155 110.039 81.9653C110.039 82.747 109.965 83.5043 109.819 84.2372C110.845 82.7226 112.115 81.208 113.63 79.6934C115.144 78.1299 116.806 76.8351 118.613 75.8091C120.47 74.783 122.376 74.27 124.33 74.27C126.626 74.27 128.19 75.0029 129.02 76.4687C129.851 77.9344 130.266 79.7666 130.266 81.9653C130.266 84.0174 130.046 86.216 129.607 88.5612C129.167 90.9065 128.727 93.1784 128.288 95.377C127.848 97.5268 127.628 99.3346 127.628 100.8C127.628 102.755 128.19 103.732 129.314 103.732C129.9 103.732 130.413 103.561 130.853 103.219C131.292 102.828 131.585 102.462 131.732 102.12L132.245 102.339C132.245 104.147 131.732 105.735 130.706 107.103C129.729 108.471 128.483 109.546 126.968 110.328C125.454 111.061 123.915 111.427 122.351 111.427C120.446 111.427 118.76 110.768 117.294 109.448C115.829 108.129 115.096 105.979 115.096 102.999C115.096 101.24 115.315 99.3346 115.755 97.2825C116.244 95.2305 116.708 93.2517 117.148 91.3462C117.587 89.4407 117.807 87.8772 117.807 86.6557C117.807 85.9229 117.661 85.361 117.368 84.9701C117.123 84.5304 116.659 84.3105 115.975 84.3105C114.851 84.3105 113.605 84.8235 112.237 85.8496C110.918 86.8756 109.77 88.2436 108.793 89.9537C107.865 91.6638 107.4 93.5448 107.4 95.5969C107.4 96.9161 107.547 98.1864 107.84 99.4079C108.182 100.629 108.353 101.949 108.353 103.365C108.353 106.004 107.669 108.007 106.301 109.375C104.933 110.743 103.345 111.427 101.537 111.427Z" fill="#EFE9CB"/>
<path d="M80.4704 111.574C78.7603 111.574 77.2701 111.012 75.9998 109.888C74.7295 108.764 74.0943 106.932 74.0943 104.392C74.0943 104.147 74.0943 103.903 74.0943 103.659C74.0943 103.414 74.1187 103.17 74.1676 102.926C72.7018 105.857 71.0406 108.032 69.184 109.448C67.3762 110.816 65.544 111.501 63.6874 111.501C61.9773 111.501 60.365 110.914 58.8503 109.742C57.3357 108.52 56.1143 106.737 55.1859 104.392C54.2576 102.046 53.7935 99.2125 53.7935 95.8901C53.7935 92.47 54.2576 89.4163 55.1859 86.7291C56.1631 84.0418 57.4334 81.7699 58.9969 79.9133C60.5604 78.0566 62.2705 76.6641 64.1271 75.7358C65.9837 74.7587 67.7915 74.2701 69.5504 74.2701C71.5048 74.2701 73.2637 74.8808 74.8272 76.1023C76.3907 77.2749 77.4656 79.1559 78.0519 81.7455C78.1985 80.9149 78.2962 80.1576 78.345 79.4735C78.4427 78.7895 78.4916 78.3253 78.4916 78.0811C78.5405 76.7619 79.2001 75.7847 80.4704 75.1495C81.7896 74.5144 83.2309 74.1968 84.7944 74.1968C86.1624 74.1968 87.4572 74.4655 88.6787 75.003C89.9001 75.5404 90.7307 76.4443 91.1705 77.7146L91.3171 78.1543C90.7307 79.4735 90.1444 81.0614 89.5581 82.9181C88.9718 84.7747 88.4344 86.7291 87.9458 88.7811C87.4572 90.7844 87.0663 92.7631 86.7732 94.7175C86.48 96.623 86.3334 98.3086 86.3334 99.7744C86.3334 101.387 86.5045 102.51 86.8465 103.146C87.1885 103.732 87.6038 104.025 88.0924 104.025C88.923 104.025 89.6803 103.439 90.3643 102.266L90.9506 102.559C90.9506 104.221 90.4132 105.735 89.3383 107.103C88.2634 108.471 86.9198 109.571 85.3074 110.401C83.6951 111.183 82.0827 111.574 80.4704 111.574ZM68.5244 102.266C69.7947 102.266 71.1872 101.142 72.7018 98.8949C74.2653 96.5986 75.6089 93.325 76.7327 89.0743C76.8304 88.6346 76.9281 88.2193 77.0258 87.8284C77.1236 87.3887 77.1968 86.9734 77.2457 86.5825C76.464 84.7747 75.6334 83.5044 74.7539 82.7715C73.9233 81.9898 73.0927 81.5989 72.2621 81.5989C71.0406 81.5989 69.8924 82.2585 68.8176 83.5777C67.7915 84.848 66.9365 86.4604 66.2525 88.4147C65.6173 90.3691 65.2997 92.3234 65.2997 94.2778C65.2997 96.965 65.5929 98.9682 66.1792 100.287C66.8143 101.607 67.5961 102.266 68.5244 102.266Z" fill="#EFE9CB"/>
<path d="M29.092 111.647C25.8185 111.647 23.1068 111.085 20.957 109.961C18.8561 108.838 17.2926 107.396 16.2666 105.637C15.2406 103.878 14.7275 102.071 14.7275 100.214C14.7275 98.4063 15.1673 96.6962 16.0467 95.0839C16.9262 93.4227 18.1721 92.0546 19.7844 90.9797C21.4456 89.9048 23.4 89.3674 25.6475 89.3674C25.5986 89.8071 25.5742 90.2224 25.5742 90.6133C25.5742 90.9553 25.5742 91.1263 25.5742 91.1263C25.5742 94.3998 25.8918 96.9893 26.527 98.8948C27.1621 100.751 27.9683 102.095 28.9455 102.926C29.9226 103.707 30.9242 104.098 31.9503 104.098C33.5138 104.098 34.9062 103.488 36.1277 102.266C37.3492 100.996 37.9599 99.53 37.9599 97.8688C37.9599 96.0122 37.1537 94.3754 35.5414 92.9585C33.9779 91.5416 31.9747 89.9781 29.5318 88.2681C28.1637 87.242 26.698 86.0938 25.1345 84.8235C23.6198 83.5043 22.3251 81.9653 21.2502 80.2063C20.1753 78.3986 19.6379 76.2732 19.6379 73.8303C19.6379 71.2896 20.2242 69.0421 21.3968 67.0877C22.6182 65.1334 24.2062 63.4966 26.1605 62.1774C28.1637 60.8094 30.3379 59.7833 32.6832 59.0993C35.0772 58.3664 37.4469 58 39.7921 58C42.6748 58 45.0444 58.4642 46.9011 59.3925C48.7577 60.3208 50.1502 61.5178 51.0785 62.9836C52.0068 64.4494 52.471 65.964 52.471 67.5275C52.471 68.9932 52.0557 70.4101 51.2251 71.7782C50.4434 73.0974 49.2707 74.1723 47.7073 75.0029C46.1438 75.8335 44.2139 76.2488 41.9175 76.2488C42.0641 75.5647 42.1618 74.954 42.2106 74.4166C42.2595 73.8303 42.2839 73.3172 42.2839 72.8775C42.2839 70.4346 41.7465 68.7001 40.6716 67.674C39.6455 66.5991 38.4974 66.0617 37.227 66.0617C36.0056 66.0617 34.833 66.5259 33.7092 67.4542C32.5854 68.3336 32.0236 69.775 32.0236 71.7782C32.0236 73.4883 32.4633 74.954 33.3428 76.1755C34.2711 77.397 35.4437 78.4719 36.8606 79.4002C38.3264 80.3285 39.8654 81.2324 41.4778 82.1118C43.139 82.9913 44.7269 83.9685 46.2415 85.0434C47.805 86.0694 49.0997 87.2909 50.1258 88.7078C51.1518 90.1247 51.6648 91.908 51.6648 94.0578C51.6648 96.3053 51.0541 98.504 49.8326 100.654C48.6111 102.755 46.9499 104.636 44.849 106.297C42.7481 107.909 40.3296 109.204 37.5935 110.181C34.9062 111.158 32.0724 111.647 29.092 111.647Z" fill="#EFE9CB"/>
<path d="M187.04 53.5003C185.476 53.5003 183.986 53.1583 182.569 52.4743C181.201 51.7414 180.077 50.6177 179.198 49.103C178.367 47.5884 177.952 45.6585 177.952 43.3133C177.952 42.0429 178.074 40.3817 178.319 38.3297C178.563 36.2776 178.88 34.0301 179.271 31.5871C179.711 29.1442 180.151 26.7013 180.59 24.2583C179.613 24.3072 178.661 24.4049 177.732 24.5515C176.853 24.6981 175.973 24.8691 175.094 25.0645L174.947 24.5515C175.924 23.3789 176.95 22.3773 178.025 21.5467C179.1 20.7161 180.224 20.032 181.397 19.4946C182.032 16.2699 182.569 13.4849 183.009 11.1397C183.449 8.74564 183.669 7.32873 183.669 6.889C183.669 6.0584 184.304 5.37438 185.574 4.83693C186.893 4.29949 188.359 4.03076 189.971 4.03076C191.388 4.03076 192.707 4.29949 193.929 4.83693C195.199 5.37438 196.054 6.27827 196.494 7.5486C196.201 7.84175 195.786 8.94107 195.248 10.8466C194.711 12.7032 194.149 14.9751 193.562 17.6624C194.491 17.7112 195.444 17.7601 196.421 17.809C197.398 17.8578 198.4 17.9311 199.426 18.0288C199.523 18.322 199.597 18.6396 199.645 18.9816C199.694 19.3236 199.719 19.69 199.719 20.0809C199.719 20.8138 199.597 21.6199 199.352 22.4994C199.157 23.33 198.913 24.0873 198.619 24.7713C197.447 24.6736 196.347 24.5759 195.321 24.4782C194.295 24.3316 193.294 24.2339 192.317 24.185C191.926 26.286 191.559 28.3869 191.217 30.4878C190.924 32.5888 190.68 34.4942 190.484 36.2043C190.338 37.9144 190.265 39.258 190.265 40.2352C190.265 42.2872 190.631 43.6553 191.364 44.3393C192.146 45.0233 193.074 45.3653 194.149 45.3653C195.126 45.3653 196.005 45.1699 196.787 44.779C197.569 44.3882 198.131 43.924 198.473 43.3866L199.206 43.6064C198.913 45.6096 198.131 47.3686 196.86 48.8832C195.59 50.3489 194.076 51.4971 192.317 52.3277C190.558 53.1095 188.799 53.5003 187.04 53.5003Z" fill="#EFE9CB"/>
<path d="M156.012 53.72C152.445 53.72 149.489 53.0115 147.144 51.5946C144.799 50.1288 143.04 48.2234 141.867 45.8781C140.695 43.484 140.108 40.919 140.108 38.1829C140.108 35.5933 140.597 33.0038 141.574 30.4143C142.6 27.7759 144.066 25.3818 145.971 23.2321C147.926 21.0823 150.271 19.3478 153.007 18.0286C155.792 16.7094 158.919 16.0498 162.388 16.0498C166.688 16.0498 169.815 17.027 171.769 18.9813C173.772 20.8868 174.774 23.2076 174.774 25.9437C174.774 28.2889 174.139 30.4632 172.868 32.4664C171.647 34.4207 170.01 36.0086 167.958 37.2301C165.906 38.4027 163.658 38.989 161.215 38.989C159.945 38.989 158.65 38.7936 157.331 38.4027C156.012 38.0119 154.717 37.4011 153.447 36.5705C153.691 39.5998 154.571 41.7984 156.085 43.1665C157.6 44.5345 159.408 45.2185 161.509 45.2185C162.974 45.2185 164.44 44.9498 165.906 44.4124C167.372 43.8261 168.715 43.0932 169.937 42.2137C171.207 41.2854 172.184 40.3082 172.868 39.2822L173.381 39.6486C173.381 42.1893 172.844 44.3635 171.769 46.1713C170.743 47.9302 169.375 49.3715 167.665 50.4953C165.955 51.619 164.074 52.4496 162.022 52.9871C160.018 53.4757 158.015 53.72 156.012 53.72ZM157.698 33.9321C159.261 33.9321 160.531 33.4924 161.509 32.613C162.486 31.6846 163.219 30.6097 163.707 29.3883C164.196 28.1668 164.44 27.0919 164.44 26.1636C164.44 25.0398 164.123 24.1115 163.487 23.3786C162.852 22.5969 161.973 22.206 160.849 22.206C159.97 22.206 158.992 22.5236 157.917 23.1588C156.891 23.7939 155.963 24.8933 155.132 26.4567C154.302 27.9714 153.764 30.0967 153.52 32.8328C155.084 33.5657 156.476 33.9321 157.698 33.9321Z" fill="#EFE9CB"/>
<path d="M118.177 53.5005C116.419 53.5005 114.855 52.7921 113.487 51.3751C112.119 49.9094 111.435 47.8573 111.435 45.2189C111.435 43.9486 111.581 42.5073 111.875 40.8949C112.168 39.2826 112.51 37.6458 112.901 35.9846C113.292 34.2745 113.634 32.6866 113.927 31.2209C114.22 29.7062 114.366 28.4603 114.366 27.4832C114.366 26.4571 114.171 25.651 113.78 25.0647C113.438 24.4295 112.974 24.1119 112.388 24.1119C111.459 24.1119 110.507 24.7471 109.529 26.0174L109.09 25.7242C109.041 24.9425 109.212 24.0142 109.603 22.9393C109.994 21.8644 110.604 20.8384 111.435 19.8612C112.266 18.8352 113.316 17.9801 114.586 17.2961C115.905 16.6121 117.445 16.2701 119.203 16.2701C121.793 16.2701 123.674 17.0274 124.847 18.542C126.019 20.0078 126.606 21.7911 126.606 23.892C126.606 24.2341 126.581 24.6005 126.532 24.9914C126.532 25.3334 126.508 25.6754 126.459 26.0174C128.218 22.8416 130.05 20.4231 131.956 18.7619C133.91 17.0518 135.718 16.1968 137.379 16.1968C138.942 16.1968 140.091 16.8075 140.824 18.029C141.556 19.2505 141.923 20.7162 141.923 22.4263C141.923 23.9898 141.605 25.5777 140.97 27.19C140.384 28.8024 139.48 30.146 138.258 31.2209C137.086 32.2469 135.644 32.7355 133.934 32.6866L133.641 32.5401C133.592 31.2697 133.177 30.2681 132.395 29.5352C131.614 28.8024 130.734 28.4359 129.757 28.4359C128.438 28.4359 127.192 29.0955 126.019 30.4147C124.896 31.7339 124.334 33.6394 124.334 36.1312C124.334 37.6458 124.505 39.2826 124.847 41.0415C125.189 42.8004 125.36 44.2906 125.36 45.5121C125.36 46.9778 125.018 48.3215 124.334 49.5429C123.65 50.7644 122.77 51.7416 121.695 52.4745C120.62 53.1585 119.448 53.5005 118.177 53.5005Z" fill="#EFE9CB"/>
<path d="M89.8028 53.72C86.5781 53.72 83.842 52.9871 81.5945 51.5213C79.3959 50.0556 77.7347 48.1501 76.6109 45.8048C75.4872 43.4108 74.9253 40.8457 74.9253 38.1096C74.9253 35.5201 75.4139 32.9305 76.3911 30.341C77.4171 27.7515 78.9073 25.3818 80.8616 23.2321C82.816 21.0334 85.1856 19.2989 87.9706 18.0286C90.8044 16.7094 94.0535 16.0498 97.7179 16.0498C101.333 16.0498 104.021 16.7827 105.78 18.2485C107.539 19.6654 108.418 21.2288 108.418 22.9389C108.418 24.7467 107.514 26.4079 105.706 27.9225C103.899 29.4371 101.26 30.1944 97.7912 30.1944C97.9867 29.4616 98.1332 28.7287 98.231 27.9958C98.3775 27.2141 98.4508 26.4812 98.4508 25.7971C98.4508 24.7711 98.231 23.9161 97.7912 23.2321C97.3515 22.4992 96.5698 22.1327 95.446 22.1327C94.42 22.1327 93.3206 22.5969 92.148 23.5252C91.0243 24.4535 90.0471 25.8216 89.2165 27.6294C88.4348 29.4371 88.0439 31.6602 88.0439 34.2986C88.0439 36.8881 88.4592 38.989 89.2898 40.6014C90.1692 42.2137 91.293 43.3863 92.661 44.1192C94.0291 44.8032 95.4704 45.1452 96.9851 45.1452C98.9883 45.1452 100.918 44.6322 102.775 43.6062C104.631 42.5313 105.975 41.0655 106.806 39.2089L107.539 39.502C107.539 42.0427 106.952 44.2169 105.78 46.0247C104.656 47.7836 103.19 49.2494 101.382 50.422C99.5746 51.5458 97.6447 52.3764 95.5926 52.9138C93.5405 53.4513 91.6106 53.72 89.8028 53.72Z" fill="#EFE9CB"/>
<path d="M54.8225 53.72C51.2558 53.72 48.2998 53.0115 45.9546 51.5946C43.6094 50.1288 41.8505 48.2234 40.6779 45.8781C39.5053 43.484 38.9189 40.919 38.9189 38.1829C38.9189 35.5933 39.4075 33.0038 40.3847 30.4143C41.4107 27.7759 42.8765 25.3818 44.782 23.2321C46.7364 21.0823 49.0816 19.3478 51.8177 18.0286C54.6026 16.7094 57.7296 16.0498 61.1986 16.0498C65.4982 16.0498 68.6251 17.027 70.5795 18.9813C72.5827 20.8868 73.5843 23.2076 73.5843 25.9437C73.5843 28.2889 72.9491 30.4632 71.6788 32.4664C70.4573 34.4207 68.8206 36.0086 66.7685 37.2301C64.7164 38.4027 62.4689 38.989 60.026 38.989C58.7556 38.989 57.4609 38.7936 56.1417 38.4027C54.8225 38.0119 53.5277 37.4011 52.2574 36.5705C52.5017 39.5998 53.3812 41.7984 54.8958 43.1665C56.4104 44.5345 58.2182 45.2185 60.3191 45.2185C61.7849 45.2185 63.2507 44.9498 64.7164 44.4124C66.1822 43.8261 67.5258 43.0932 68.7473 42.2137C70.0176 41.2854 70.9948 40.3082 71.6788 39.2822L72.1918 39.6486C72.1918 42.1893 71.6544 44.3635 70.5795 46.1713C69.5534 47.9302 68.1854 49.3715 66.4753 50.4953C64.7653 51.619 62.8842 52.4496 60.8321 52.9871C58.8289 53.4757 56.8257 53.72 54.8225 53.72ZM56.5081 33.9321C58.0716 33.9321 59.3419 33.4924 60.3191 32.613C61.2963 31.6846 62.0292 30.6097 62.5178 29.3883C63.0064 28.1668 63.2506 27.0919 63.2506 26.1636C63.2506 25.0398 62.9331 24.1115 62.2979 23.3786C61.6627 22.5969 60.7833 22.206 59.6595 22.206C58.7801 22.206 57.8029 22.5236 56.728 23.1588C55.702 23.7939 54.7736 24.8933 53.943 26.4567C53.1124 27.9714 52.575 30.0967 52.3307 32.8328C53.8942 33.5657 55.2867 33.9321 56.5081 33.9321Z" fill="#EFE9CB"/>
<path d="M14.3645 53.647C11.091 53.647 8.37929 53.0851 6.2295 51.9614C4.12857 50.8376 2.56509 49.3963 1.53905 47.6374C0.513018 45.8785 0 44.0707 0 42.214C0 40.4063 0.43973 38.6962 1.31919 37.0839C2.19865 35.4227 3.44455 34.0546 5.05689 32.9797C6.71809 31.9048 8.67245 31.3674 10.92 31.3674C10.8711 31.8071 10.8467 32.2224 10.8467 32.6133C10.8467 32.9553 10.8467 33.1263 10.8467 33.1263C10.8467 36.3998 11.1642 38.9894 11.7994 40.8949C12.4346 42.7515 13.2407 44.0951 14.2179 44.9257C15.1951 45.7074 16.1967 46.0983 17.2227 46.0983C18.7862 46.0983 20.1787 45.4876 21.4002 44.2661C22.6216 42.9958 23.2324 41.53 23.2324 39.8688C23.2324 38.0122 22.4262 36.3754 20.8139 34.9585C19.2504 33.5416 17.2472 31.9781 14.8042 30.2681C13.4362 29.242 11.9704 28.0938 10.4069 26.8235C8.89231 25.5043 7.59755 23.9653 6.52266 22.2063C5.44776 20.3986 4.91031 18.2732 4.91031 15.8303C4.91031 13.2896 5.49662 11.0421 6.66923 9.08774C7.8907 7.13339 9.47862 5.49662 11.433 4.17743C13.4362 2.80938 15.6104 1.78335 17.9556 1.09932C20.3497 0.36644 22.7194 0 25.0646 0C27.9473 0 30.3169 0.464158 32.1735 1.39248C34.0302 2.32079 35.4227 3.51783 36.351 4.9836C37.2793 6.44937 37.7435 7.96399 37.7435 9.52747C37.7435 10.9932 37.3282 12.4101 36.4976 13.7782C35.7158 15.0974 34.5432 16.1723 32.9797 17.0029C31.4162 17.8335 29.4863 18.2488 27.1899 18.2488C27.3365 17.5648 27.4342 16.954 27.4831 16.4166C27.532 15.8303 27.5564 15.3172 27.5564 14.8775C27.5564 12.4346 27.0189 10.7001 25.944 9.67405C24.918 8.59915 23.7698 8.06171 22.4995 8.06171C21.278 8.06171 20.1054 8.52587 18.9817 9.45419C17.8579 10.3336 17.296 11.775 17.296 13.7782C17.296 15.4883 17.7358 16.954 18.6152 18.1755C19.5435 19.397 20.7162 20.4719 22.1331 21.4002C23.5988 22.3285 25.1379 23.2324 26.7502 24.1118C28.4114 24.9913 29.9993 25.9685 31.514 27.0434C33.0774 28.0694 34.3722 29.2909 35.3982 30.7078C36.4243 32.1247 36.9373 33.908 36.9373 36.0578C36.9373 38.3053 36.3265 40.504 35.1051 42.6538C33.8836 44.7547 32.2224 46.6358 30.1215 48.297C28.0205 49.9093 25.602 51.2041 22.8659 52.1812C20.1787 53.1584 17.3449 53.647 14.3645 53.647Z" fill="#EFE9CB"/>
</svg>
